# xmcd CD database file
#
# Track frame offsets:
#	150
#	16022
#	32492
#	47445
#	60950
#	75465
#	90065
#	103470
#	114745
#	130415
#
# Disc length: 1924 seconds
#
# Revision: 6
# Processed by: cddbd v1.4PL0 Copyright (c) Steve Scherf et al.
# Submitted via: CDex 1.40Beta6
#
DISCID=6a07820a
DTITLE=George Strait - Always Never The Same
DYEAR=1999
DGENRE=Country
TTITLE0=Meanwhile
TTITLE1=Write This Down
TTITLE2=That's The Truth
TTITLE3=What Do You Say To That
TTITLE4=Peace Of Mind
TTITLE5=That's Where I Wanna Take Our Love
TTITLE6=Always Never The Same
TTITLE7=One Of You
TTITLE8=I Look At You
TTITLE9=4 Minus 3 Equals Zero
EXTD=
EXTT0=
EXTT1=
EXTT2=
EXTT3=
EXTT4=
EXTT5=
EXTT6=
EXTT7=
EXTT8=
EXTT9=
PLAYORDER=
